<?xml version="1.0" encoding="UTF-8"?>
<!DOCTYPE svg PUBLIC "-//W3C//DTD SVG 1.1//EN" "http://www.w3.org/Graphics/SVG/1.1/DTD/svg11.dtd">
<svg xmlns="http://www.w3.org/2000/svg" version="1.1" width="512px" height="512px" style="shape-rendering:geometricPrecision; text-rendering:geometricPrecision; image-rendering:optimizeQuality; fill-rule:evenodd; clip-rule:evenodd" xmlns:xlink="http://www.w3.org/1999/xlink">
<g><path style="opacity:0.997" fill="#e64c3b" d="M 511.5,149.5 C 511.5,161.5 511.5,173.5 511.5,185.5C 507.918,211.706 499.418,236.373 486,259.5C 451.139,319.397 407.639,372.564 355.5,419C 323.369,447.635 289.869,474.468 255,499.5C 203.128,462.32 154.794,420.654 110,374.5C 75.6379,337.807 46.3046,297.474 22,253.5C 10.3544,232.064 2.85444,209.398 -0.5,185.5C -0.5,173.5 -0.5,161.5 -0.5,149.5C 6.02564,96.5898 32.0256,56.4231 77.5,29C 131.892,1.86465 182.558,7.53132 229.5,46C 238.735,54.5652 247.235,63.7319 255,73.5C 280.308,40.5486 313.474,20.3819 354.5,13C 413.689,10.6737 458.856,34.507 490,84.5C 501.312,104.936 508.479,126.603 511.5,149.5 Z"/></g>
</svg>
